<svg xmlns="http://www.w3.org/2000/svg" width="107.771" height="210.124" viewBox="0 0 28.514 55.595"><path d="M123.97 37.113c-.352-.69-.927-.69-1.279 0l-13.145 25.814c-.351.69-.351 1.82 0 2.51l13.145 25.814c.352.69.927.69 1.279 0l13.145-25.814c.351-.69.351-1.82 0-2.51L123.97 37.113" style="fill:#b1c0c8;fill-opacity:1;fill-rule:nonzero;stroke:none;stroke-width:.0352778" transform="translate(-109.073 -36.385)"/><path d="M123.33 36.807c-.156 0-.32.147-.45.402l-13.146 25.814c-.32.628-.32 1.69 0 2.318l13.146 25.814c.13.256.294.402.45.402.157 0 .321-.146.451-.402l13.146-25.814c.32-.628.32-1.69 0-2.318L123.78 37.209c-.13-.255-.294-.402-.45-.402zm0 55.173c-.325 0-.619-.225-.827-.633l-13.145-25.814c-.38-.745-.38-1.957 0-2.702l13.145-25.814c.208-.408.502-.632.828-.632.325 0 .619.224.827.632l13.145 25.814c.38.745.38 1.957 0 2.702l-13.145 25.814c-.208.408-.502.633-.827.633" style="fill:#527083;fill-opacity:1;fill-rule:nonzero;stroke:none;stroke-width:.0352778" transform="translate(-109.073 -36.385)"/><path d="m123.33 56.796-6.394 3.692 6.395 3.692 6.394-3.692-6.394-3.692" style="fill:#8ba1ac;fill-opacity:1;fill-rule:nonzero;stroke:none;stroke-width:.0352778" transform="translate(-109.073 -36.385)"/><path d="m129.721 60.488-6.392 3.696.006 7.384 6.392-3.696-.006-7.384" style="fill:#e3edef;fill-opacity:1;fill-rule:nonzero;stroke:none;stroke-width:.0352778" transform="translate(-109.073 -36.385)"/><path d="m116.94 60.488 6.392 3.696-.006 7.384-6.392-3.696.006-7.384M123.33 82.947a.211.211 0 0 1-.212-.211v-4.97a.211.211 0 0 1 .422 0v4.97a.211.211 0 0 1-.21.211" style="fill:#527083;fill-opacity:1;fill-rule:nonzero;stroke:none;stroke-width:.0352778" transform="translate(-109.073 -36.385)"/><path d="M126.092 78.86a.21.21 0 0 1-.15-.062c-.008-.007-.854-.82-2.613-.82-1.772 0-2.605.812-2.613.82a.211.211 0 0 1-.3-.298c.04-.039.968-.945 2.913-.945 1.945 0 2.873.906 2.912.945a.21.21 0 0 1-.15.36M126.092 82.947h-5.526a.211.211 0 1 1 0-.422h5.526a.211.211 0 1 1 0 .422M125.372 84.451h-4.086a.211.211 0 0 1 0-.422h4.086a.211.211 0 1 1 0 .422M124.768 85.792h-2.878a.211.211 0 0 1 0-.423h2.878a.211.211 0 1 1 0 .423M124.142 87.23h-1.626a.211.211 0 1 1 0-.422h1.626a.211.211 0 1 1 0 .422M123.33 49.402a.21.21 0 0 1-.15-.062l-2.798-2.798a.211.211 0 0 1 .298-.299l2.798 2.799a.21.21 0 0 1-.149.36" style="fill:#527083;fill-opacity:1;fill-rule:nonzero;stroke:none;stroke-width:.0352778" transform="translate(-109.073 -36.385)"/><path d="M123.33 49.402a.21.21 0 0 1-.15-.36l2.798-2.799a.211.211 0 1 1 .299.3l-2.799 2.797a.21.21 0 0 1-.149.062" style="fill:#527083;fill-opacity:1;fill-rule:nonzero;stroke:none;stroke-width:.0352778" transform="translate(-109.073 -36.385)"/><path d="M123.332 55.709a.211.211 0 0 1-.211-.211V40.506a.211.211 0 1 1 .422 0v14.992a.211.211 0 0 1-.211.211M119.996 72.945l-.896 3.17c-.088.307-.312.37-.497.37-.18 0-.41-.063-.497-.37l-.9-3.17c-.006-.01-.006-.019-.006-.029 0-.049.04-.083.088-.083h.283c.038 0 .077.034.087.073l.847 3.102c.02.069.044.102.098.102.049 0 .073-.033.092-.102l.853-3.102c.01-.039.043-.073.083-.073h.287a.08.08 0 0 1 .082.083c0 .01 0 .02-.005.03M121.778 76.486c-.79 0-1.247-.42-1.247-1.35v-2.21c0-.049.04-.093.093-.093h.262c.05 0 .093.04.093.093v2.21c0 .629.195.97.799.97.604 0 .798-.336.798-.97v-2.21c0-.049.04-.093.093-.093h.263c.049 0 .092.04.092.093v2.21c0 .93-.458 1.35-1.246 1.35M125.668 73.846c0-.487-.316-.647-.925-.647-.151 0-.419 0-.536.014v1.334c.215.005.424.01.536.01.599 0 .925-.15.925-.677zm.512 2.606h-.312c-.059 0-.088 0-.127-.064l-.872-1.45h-.126c-.16 0-.278-.006-.536-.016v1.432c0 .049-.034.098-.087.098h-.263c-.05 0-.088-.044-.088-.098v-3.409c0-.068.03-.097.117-.107.21-.024.574-.039.857-.039.77 0 1.364.259 1.364 1.047v.034c0 .546-.322.867-.765.984l.886 1.48c.01.015.015.03.015.044a.061.061 0 0 1-.063.064M129.116 76.452h-.38a.132.132 0 0 1-.107-.049l-1.373-1.67v1.62c0 .05-.035.099-.088.099h-.268c-.049 0-.088-.044-.088-.098v-3.428c0-.049.04-.093.093-.093h.258c.048 0 .093.04.093.093v1.573l1.402-1.622c.03-.029.049-.044.097-.044h.35c.05 0 .069.025.069.054a.071.071 0 0 1-.02.049l-1.465 1.655 1.466 1.753a.09.09 0 0 1 .024.059c0 .024-.02.049-.063.049" style="fill:#527083;fill-opacity:1;fill-rule:nonzero;stroke:none;stroke-width:.0352778" transform="translate(-109.073 -36.385)"/></svg>
