<?xml version="1.0" standalone="no"?>
<!DOCTYPE svg PUBLIC "-//W3C//DTD SVG 20010904//EN"
 "http://www.w3.org/TR/2001/REC-SVG-20010904/DTD/svg10.dtd">
<svg version="1.0" xmlns="http://www.w3.org/2000/svg"
 width="1680.000000pt" height="1680.000000pt" viewBox="0 0 1680.000000 1680.000000"
 preserveAspectRatio="xMidYMid meet">
<metadata>
Created by potrace 1.14, written by Peter Selinger 2001-2017
</metadata>
<g transform="translate(0.000000,1680.000000) scale(0.100000,-0.100000)"
fill="#000000" stroke="none">
<path d="M8320 16772 c-45 -22 -106 -77 -135 -122 -12 -19 -96 -181 -186 -360
-90 -179 -166 -327 -169 -330 -10 -10 -152 -299 -150 -306 1 -4 -2 -10 -8 -13
-5 -3 -42 -71 -82 -151 -40 -80 -77 -151 -82 -157 -6 -7 -8 -13 -4 -13 3 0 -4
-17 -17 -37 -13 -21 -43 -78 -67 -128 -24 -49 -48 -93 -54 -97 -6 -4 -7 -8 -3
-8 4 0 -5 -24 -21 -52 -16 -29 -71 -136 -123 -238 -51 -102 -97 -186 -101
-188 -4 -2 -8 -9 -8 -16 0 -6 -14 -38 -31 -71 -17 -33 -70 -136 -117 -230 -47
-93 -90 -173 -96 -177 -6 -4 -8 -8 -4 -8 4 0 -23 -57 -59 -127 -36 -71 -93
-182 -126 -248 -33 -66 -65 -123 -71 -127 -6 -4 -8 -8 -4 -8 9 0 -63 -143 -74
-148 -5 -2 -8 -9 -8 -16 0 -11 -19 -52 -80 -166 -21 -39 -25 -47 -91 -180 -34
-69 -68 -132 -75 -140 -7 -8 -13 -18 -13 -23 0 -8 -72 -151 -241 -482 -50 -99
-153 -301 -228 -450 -76 -148 -141 -273 -145 -276 -5 -3 -8 -8 -7 -10 2 -4
-42 -101 -50 -109 -3 -3 -48 -90 -100 -195 -52 -104 -104 -206 -116 -225 -12
-19 -22 -39 -24 -45 -6 -21 -14 -40 -19 -45 -3 -3 -49 -90 -101 -195 -52 -104
-99 -193 -103 -196 -5 -3 -7 -8 -6 -10 3 -4 -102 -220 -111 -229 -5 -5 -230
-447 -262 -515 -10 -22 -23 -47 -28 -55 -23 -38 -74 -145 -72 -149 2 -2 0 -7
-5 -10 -8 -6 -33 -53 -196 -376 -33 -66 -65 -123 -71 -127 -6 -4 -8 -8 -3 -8
10 0 -22 -62 -37 -72 -6 -4 -8 -8 -4 -8 4 0 -1 -16 -12 -35 -25 -44 -84 -158
-85 -165 -3 -11 -50 -105 -56 -110 -6 -5 -41 -110 -53 -160 -28 -110 -28 -357
-1 -467 3 -13 7 -31 9 -40 9 -39 49 -130 113 -256 37 -72 67 -136 65 -140 -1
-4 5 -10 13 -13 8 -4 15 -12 15 -19 0 -14 104 -221 122 -242 6 -7 7 -13 3 -13
-4 0 -3 -6 3 -12 5 -7 45 -83 88 -168 43 -85 82 -158 87 -161 5 -3 9 -10 9
-15 -1 -9 27 -65 251 -504 71 -140 201 -397 289 -570 88 -173 213 -418 278
-545 65 -126 169 -331 231 -455 63 -124 117 -226 122 -228 4 -2 7 -9 7 -16 0
-7 20 -49 44 -94 24 -45 41 -82 38 -82 -4 0 -2 -4 3 -8 6 -4 53 -92 105 -197
52 -104 100 -193 105 -197 7 -5 7 -8 0 -8 -5 0 -4 -4 3 -8 7 -5 14 -19 17 -31
2 -13 8 -28 14 -35 8 -10 118 -224 383 -746 51 -102 98 -192 103 -200 5 -8 10
-20 11 -26 1 -6 14 -30 28 -52 14 -23 23 -42 20 -42 -4 0 -1 -6 5 -14 6 -8 32
-56 57 -107 25 -52 51 -97 57 -101 7 -4 9 -8 4 -8 -6 0 100 -217 113 -230 3
-3 77 -149 166 -325 89 -176 220 -435 291 -575 72 -140 173 -338 224 -440 51
-102 97 -188 102 -191 5 -3 8 -9 7 -13 -2 -11 42 -100 54 -108 6 -4 7 -8 2 -8
-5 0 -4 -6 2 -12 5 -7 87 -166 182 -353 213 -421 219 -432 272 -481 48 -44 87
-64 136 -71 39 -6 132 15 132 29 0 5 4 7 9 4 20 -13 109 103 171 224 35 69
123 241 194 382 72 141 172 337 222 435 50 98 140 275 199 393 60 118 114 218
120 222 5 4 7 8 4 8 -3 0 27 64 67 143 40 78 126 248 191 377 65 129 121 237
126 238 4 2 7 12 7 22 0 10 3 20 8 22 4 2 34 57 67 123 32 66 64 123 70 127 5
4 7 8 3 8 -7 0 57 128 73 145 5 5 9 17 9 26 0 10 6 24 13 31 6 8 59 108 117
223 58 116 108 212 113 213 4 2 7 9 7 16 0 7 18 46 40 86 22 40 40 79 40 86 0
8 4 14 8 14 7 0 23 33 31 65 2 6 7 16 13 23 6 7 58 106 115 220 57 113 109
212 115 219 6 7 7 13 4 13 -4 0 -2 6 4 13 5 6 67 125 136 262 241 477 345 679
356 692 6 7 7 13 3 13 -5 0 -1 8 8 18 8 9 19 29 22 45 4 15 11 27 15 27 4 0
11 12 15 27 3 15 10 30 13 33 9 6 52 98 51 106 0 4 4 10 9 13 5 3 36 60 68
126 32 66 63 123 67 126 5 3 8 9 8 13 -1 7 41 98 49 106 3 3 48 91 100 195 52
105 105 207 118 228 12 20 20 37 17 37 -3 0 5 17 17 38 13 20 82 154 153 297
72 143 132 262 135 265 3 3 62 118 131 255 233 463 411 810 421 823 6 6 7 12
2 12 -5 0 -4 4 1 8 19 13 74 147 97 232 33 131 31 417 -5 510 -3 8 -11 33 -18
55 -14 47 -44 108 -211 435 -69 135 -188 369 -264 520 -77 151 -143 278 -149
282 -5 4 -6 8 -1 8 5 0 2 8 -7 18 -10 10 -14 22 -10 25 3 4 0 7 -7 7 -7 0 -10
3 -7 6 4 4 -2 19 -13 34 -11 16 -20 35 -20 43 0 9 -4 17 -8 19 -9 3 -63 113
-61 124 0 4 -3 10 -9 13 -5 3 -40 69 -78 146 -38 77 -72 142 -76 143 -5 2 -8
12 -8 22 0 10 -3 20 -7 22 -5 2 -46 80 -93 173 -47 94 -97 191 -112 218 -15
26 -26 47 -24 47 3 0 -13 32 -34 70 -21 39 -42 81 -46 93 -3 12 -11 27 -16 34
-19 23 -98 184 -98 198 0 8 -4 15 -8 15 -4 0 -15 15 -23 33 -8 17 -61 123
-118 234 -56 111 -101 205 -101 209 1 4 -2 10 -7 13 -5 3 -25 38 -44 76 -18
39 -36 72 -40 75 -5 5 -10 15 -20 45 -2 6 -20 41 -41 79 -21 38 -38 74 -38 80
0 7 -4 16 -9 21 -5 6 -57 102 -114 215 -141 277 -379 744 -555 1090 -232 457
-348 683 -362 710 -7 14 -17 33 -22 43 -12 26 -27 54 -40 80 -6 12 -79 155
-161 317 -82 162 -153 299 -158 304 -5 6 -9 18 -9 27 0 10 -3 19 -8 21 -4 2
-56 100 -116 218 -60 118 -157 310 -216 425 -59 116 -156 307 -216 425 -59
118 -112 218 -117 221 -5 3 -9 10 -9 15 -1 17 -17 52 -27 58 -5 3 -12 20 -16
36 -4 17 -11 30 -16 30 -6 0 -7 5 -4 10 3 6 1 10 -5 10 -6 0 -8 5 -5 10 3 6 1
10 -6 10 -7 0 -10 3 -6 6 15 16 -94 150 -151 186 -44 27 -144 32 -192 10z"/>
</g>
</svg>
